<svg fill="none" height="95" viewBox="0 0 96 95" width="96" xmlns="http://www.w3.org/2000/svg"><g fill="#fff"><path d="m94.1593 47.8999-10.7062-5.1779c-.5794-.282-1.2303-.383-1.868-.2898-.6376.0932-1.2324.3764-1.7068.8125-.4567.4227-20.6125 18.9046-20.6125 18.9046l-8.9279-6.8113c-.402-.3073-.8992-.4634-1.4047-.441s-.987.2219-1.3602.5635l-2.8643 2.6196c-.223.2046-.4011.4533-.523.7304-.122.277-.185.5764-.1852.8791s.0625.6021.1841.8793c.1215.2772.2993.5261.5221.731l7.7424 7.0992-7.7424 7.0992c-.2228.2049-.4006.4538-.5222.731-.1215.2772-.1842.5767-.184.8794.0002.3026.0632.602.1851.879.1219.2771.3001.5258.5231.7304l2.8643 2.6196c.3732.3417.8547.5411 1.3602.5635s1.0027-.1337 1.4047-.441l8.9279-6.8113s20.1557 18.482 20.6125 18.9046c.4744.4362 1.0692.7193 1.7068.8126.6377.0932 1.2886-.0078 1.868-.2899l10.7062-5.1779c.5523-.2684 1.0179-.6869 1.3435-1.2076.3257-.5207.4981-1.1225.4977-1.7366v-35.11c.0004-.6141-.172-1.2159-.4976-1.7366-.3257-.5207-.7913-.9391-1.3436-1.2076zm-11.1507 32.3638-15.5518-11.8646 15.5518-11.8646z"/><path clip-rule="evenodd" d="m17.4189 45.8325c-.0577-4.7949 1.7044-9.4334 4.9312-12.9805-.4772-1.202-2.1475-6.1699.4772-12.8203 0 0 4.0564-1.2821 13.2029 4.9679 3.9156-1.0592 7.9537-1.5981 12.01-1.6026 4.0564.0045 8.0944.5434 12.01 1.6026 9.1466-6.25 13.2029-4.9679 13.2029-4.9679 2.6248 6.6504.9545 11.6183.4772 12.8203 1.8459 1.9922 3.2229 4.3718 4.0304 6.9648 1.2385-.9217 2.7415-1.4187 4.2853-1.4169 1.0913.0015 2.1682.2487 3.1509.7232l6.8081 3.2925c.3823.1838.8078.2587 1.2299.2164.422-.0423.8242-.2 1.1624-.456.3383-.2559.5994-.6.7549-.9947.1554-.3946.199-.8245.1261-1.2423-1.9105-11.1538-7.6961-21.2754-16.3376-28.5816-8.6415-7.30628-19.5844-11.3282704-30.9005-11.3574-6.3337.0178898-12.6017 1.28451-18.4453 3.72739-5.8436 2.44287-11.1482 6.01405-15.6102 10.50921-4.462 4.4951-7.99384 9.826-10.39341 15.6875-2.39956 5.8616-3.6197644 12.1388-3.5907857 18.4724-.0228598 10.1289 3.1353857 20.0094 9.0290957 28.2471 5.8937 8.2378 14.2253 14.4169 23.8192 17.6655 2.386.4808 3.261-1.0416 3.261-2.3237 0-1.1217-.0796-4.9678-.0796-8.9742-13.362 2.8846-16.1457-5.7691-16.1457-5.7691-2.1475-5.6089-5.3289-7.0511-5.3289-7.0511-4.3746-2.9647.3181-2.9647.3181-2.9647 4.8517.3205 7.3968 4.9679 7.3968 4.9679 4.2949 7.3716 11.2146 5.2883 13.9984 4.0062.2001-2.4549 1.2722-4.7571 3.0224-6.4901-10.6579-1.1219-21.8724-5.2884-21.8724-23.8778z" fill-rule="evenodd"/></g></svg>